<svg xmlns="http://www.w3.org/2000/svg" viewBox="0 0 1672 941" preserveAspectRatio="xMidYMid slice">
  <g fill="white">
    <path d="M0 0H80L80 115 62 171 74 220 55 260 52 420 66 490 59 548 0 570Z"/><path transform="translate(0 -155)" d="M155 941V579H202V521L213 512 227 517V602H253V548H268V561H292V520L307 502 320 510V602H340V472L353 465V445H359V465L369 470V625H392V521L405 508 420 515V648H438V490H460V657H600L850 941Z"/>
    <path transform="translate(0 -155)" d="M436 941V531L463 508V455L476 446V421H481V445L506 455V599L537 605V448L549 440V415H555V440L570 448V590L577 583V531L583 526V510H587V528L601 535V599L616 601 628 564 638 603 675 606 700 591 717 602 722 579 736 574 748 600 776 606 793 584 809 580 829 552 850 550 855 540 865 541 872 533 880 540 884 523 889 542 900 536 906 553 921 554 941 582 958 589 979 617 996 620 1000 575 1008 548 1014 546 1021 564 1029 582 1026 632 1072 638 1088 611 1107 614 1117 636 1145 637 1146 615 1163 615 1168 640 1213 640V576H1222V568H1239V575H1257V633H1265V553H1274V550H1284V552H1289V599H1319V550H1327V506L1336 500 1340 483 1347 500 1359 506V622H1378V490L1393 486V630H1414V430L1424 423V407H1428V425L1447 431V607L1460 595V528L1473 514 1488 525V633H1506V526L1523 512 1529 529V607H1550V400L1562 391 1574 389V361H1580V390L1588 392V572L1617 569V329L1628 319V284H1632V317L1644 321 1651 339V941Z"/>
    <path d="M1452 0H1672V269L1644 226 1640 188 1618 201 1599 169 1577 196 1562 163 1531 142 1524 115 1495 112 1480 76 1446 77 1434 51Z"/>
    <!-- Helicopters, birds, and roadside lamp sit in front of the title. -->
    <path d="M1430 202L1478 207 1483 202 1495 207 1525 199 1527 191 1531 191 1534 211 1530 214 1527 205 1501 217 1502 230 1496 233 1499 239 1493 241 1487 236 1474 239 1461 237 1459 233 1467 219 1478 212Z"/>
    <path d="M702 379L730 384 735 381 746 385 749 383 751 389 747 391 741 390 737 395 744 397 740 401 733 398 727 400 721 396 719 391 704 383Z"/>
    <path d="M174 663L177 239 179 235 179 223Q184 217 190 222L193 227 192 237 195 240 193 663Z"/>
    <path d="M191 245Q217 224 254 220" fill="none" stroke="white" stroke-width="7"/>
    <path d="M250 220Q276 210 299 221L304 225 301 231Q278 241 256 233L252 228Z"/>
    <g fill="none" stroke="white" stroke-width="5" stroke-linecap="round">
      <path d="M740 194Q750 192 753 200Q758 193 764 195"/>
      <path d="M790 170Q800 170 803 177Q806 172 815 172"/>
      <path d="M823 193Q832 195 834 201Q838 199 845 207"/>
      <path d="M860 182Q868 176 872 185Q877 185 882 192"/>
      <path d="M907 190Q917 190 919 198Q924 194 932 195"/>
    </g>
  </g>
</svg>


